<svg width="43" height="42" viewBox="0 0 43 42" fill="none" xmlns="http://www.w3.org/2000/svg">
<path d="M39.7825 21.1314C39.7825 19.6401 39.659 18.5519 39.3918 17.4233H22.0151V24.1543H32.2149C32.0093 25.8271 30.8988 28.3462 28.4311 30.0389L28.3965 30.2643L33.8907 34.4354L34.2713 34.4726C37.7672 31.3086 39.7825 26.6533 39.7825 21.1314Z" fill="#4285F4"/>
<path d="M22.014 38.8662C27.011 38.8662 31.206 37.2538 34.2702 34.4728L28.4299 30.039C26.8671 31.1072 24.7695 31.8528 22.014 31.8528C17.1198 31.8528 12.9659 28.6889 11.4851 24.3157L11.2681 24.3337L5.55518 28.6667L5.48047 28.8702C8.52392 34.7951 14.7754 38.8662 22.014 38.8662Z" fill="#34A853"/>
<path d="M11.4861 24.3158C11.0954 23.1873 10.8693 21.978 10.8693 20.7286C10.8693 19.479 11.0954 18.2699 11.4656 17.1414L11.4552 16.901L5.67069 12.4985L5.48143 12.5868C4.22708 15.0454 3.50732 17.8064 3.50732 20.7286C3.50732 23.6507 4.22708 26.4116 5.48143 28.8703L11.4861 24.3158Z" fill="#FBBC05"/>
<path d="M22.0141 9.60421C25.4894 9.60421 27.8337 11.0754 29.1704 12.3048L34.3937 7.30683C31.1858 4.38468 27.0111 2.59106 22.0141 2.59106C14.7755 2.59106 8.52393 6.66191 5.48047 12.5868L11.4646 17.1414C12.9659 12.7682 17.1199 9.60421 22.0141 9.60421Z" fill="#EB4335"/>
</svg>
